# xmcd
#
# Track frame offsets:
#	150
#	18082
#	36657
#	53853
#	72490
#	89517
#	105140
#	119908
#	138395
#	155868
#	173063
#	191650
#	208668
#	223928
#	240899
#	254337
#	268379
#
# Disc length: 3804 seconds
#
# Revision: 0
# Processed by: cddbd v1.5.1PL2 Copyright (c) Steve Scherf et al.
# Submitted via: dBpowerAMP V4.0
#
DISCID=070eda11
DTITLE=Pat Green - Cannonball (Target Edition)
DYEAR=2006
DGENRE=Country
TTITLE0=Cannonball
TTITLE1=Way Back Texas
TTITLE2=Love Like That
TTITLE3=Dixie Lullaby
TTITLE4=Feels Just Like It Should
TTITLE5=Missing Me
TTITLE6=Virgina Belle
TTITLE7=Finder's Keepers (w/ Sara Evans)
TTITLE8=Won't Let Love
TTITLE9=Lost Without You
TTITLE10=I'm Trying To Find It
TTITLE11=Love Had Something To Say
TTITLE12=Learn How To Live
TTITLE13=Sleeping With The Lights On
TTITLE14=Somebody Else
TTITLE15=Memory On The Run
TTITLE16=Feels Just Like It Should (accoustic version)
EXTD=
EXTT0=
EXTT1=
EXTT2=
EXTT3=
EXTT4=
EXTT5=
EXTT6=
EXTT7=
EXTT8=
EXTT9=
EXTT10=
EXTT11=
EXTT12=
EXTT13=
EXTT14=
EXTT15=
EXTT16=
PLAYORDER=
